# xmcd CD database file
#
# Track frame offsets:
#	150
#	18712
#	39387
#	60900
#	86537
#	107362
#	127105
#	143355
#	164850
#	184005
#
# Disc length: 2720 seconds
#
# Revision: 0
# Processed by: cddbd v1.5.1PL0 Copyright (c) Steve Scherf et al.
# Submitted via: CDex 1.51
#
DISCID=7d0a9e0a
DTITLE=石井明美 - 熱帯者（Brazilian night)
DYEAR=1990
DGENRE=JPop
TTITLE0=ランバダ
TTITLE1=オフェーリア
TTITLE2=ダンスでランバダ〜夜に揺られて〜
TTITLE3=熱帯夜
TTITLE4=赤い薔薇（ミア・ノーチェ）
TTITLE5=Don't
TTITLE6=オリーブの首飾り
TTITLE7=ドアを開けて
TTITLE8=蜃気楼
TTITLE9=ダンスでランバダ〜夜に揺られて〜（赤道編）
EXTD=YEAR: 1990
EXTT0=
EXTT1=
EXTT2=
EXTT3=
EXTT4=
EXTT5=
EXTT6=
EXTT7=
EXTT8=
EXTT9=
PLAYORDER=
